<!--?xml version="1.0" standalone="no"?-->
              <svg id="sw-js-blob-svg" viewBox="0 0 100 100" xmlns="http://www.w3.org/2000/svg" version="1.1">
                    <defs> 
                        <linearGradient id="sw-gradient" x1="0" x2="1" y1="1" y2="0">
                            <stop id="stop1" stop-color="rgba(15.831, 6.226, 1.681, 1)" offset="0%"></stop>
                            <stop id="stop2" stop-color="rgba(251, 31, 57.493, 1)" offset="100%"></stop>
                        </linearGradient>
                    </defs>
                <path fill="url(#sw-gradient)" d="M21.2,-36.4C28,-32.8,34.5,-28.2,38.8,-22C43.1,-15.8,45.3,-7.9,43.2,-1.2C41.2,5.6,35.1,11.1,30.5,16.9C25.9,22.7,23,28.7,18.2,33C13.3,37.4,6.7,40.1,0,40C-6.6,39.9,-13.2,37.1,-18.6,33.1C-24,29.1,-28.2,23.9,-31.6,18.2C-34.9,12.5,-37.3,6.2,-38.5,-0.7C-39.6,-7.6,-39.5,-15.1,-35.9,-20.4C-32.3,-25.7,-25.3,-28.6,-18.7,-32.4C-12.2,-36.1,-6.1,-40.7,0.6,-41.6C7.2,-42.6,14.4,-40,21.2,-36.4Z" width="100%" height="100%" transform="translate(50 50)" stroke-width="0" style="transition: all 0.3s ease 0s;"></path>
              </svg>